<svg id="Layer_1" xmlns="http://www.w3.org/2000/svg" width="115" height="54" viewBox="0 0 115 54"><style>.st0{fill:#121212}</style><path class="st0" d="M9.6 27l-.5-.1.5-.3h.1l.1-.1.2.2-.5.2.1.1zm8.5-16.2l.6-.5c.1 0 .2-.1.4-.2l.1-.3s0-.1.1-.3l-.6.3-.6.6c-.1.1 0 .3 0 .4zm-.8 22.1l-.8 1.6.8-1-.3.1.3-.7zm-7.2-6.3zm.6 0c.2-.1.3-.2.4-.3h-.2c-.3.1-.5.2-.7.3v.1c.1 0 .3-.1.5-.1zm11-1.3l-.2.5.4-.3v-.2h-.2zm-10 .6c-.1 0-.1.1-.2.2s-.1.2-.2.2c.2 0 .4-.1.6-.1 0-.2-.1-.3-.2-.3zM32.3 4.2v-.1l-1.4.3.1.1 1.3-.3zm-8.7 27.6c.1.1.2.2.5.2 0-.1-.2-.5-.5-1.1v.4c-.1.2-.1.4 0 .5zm28.5 14.3c.1.4.2.7.2 1.1 0 .1 0 .2-.1.3 0 .1-.1.2-.1.3l-.6 1.1v.1s-.1 0-.2.1c-.1 0-.1.1-.2.1-.1.2-.2.5-.4.8l-.1.3c0 .1-.1.2 0 .3-.1.4-.4.7-.6 1.1-.3.4-.6.7-.9 1-.3.3-.5.4-.6.3-.1 0-.2 0-.3.1-.1 0-.2 0-.2.1 0 0-.1.1-.1.2s-.1.1-.1.2c-.6.5-1.4.7-2.5.7-1.2-.1-2.5-.4-3.9-1-1-.5-2.1-1.1-3.4-1.9-.7-.4-1.7-1.1-3.1-2.1l-.7-.5c-.7-.4-1.4-1-2.3-1.6-.1-.1-.3-.3-.8-.7l-.6-.6c-.1-.1-.4-.3-.7-.6l-.6-.4-1.3-1.2-2.2-2c-.2-.2-.4-.3-.6-.5-.2-.2-.5-.4-.7-.6-.1-.1-.4-.5-.8-1 0 0-.1-.1-.2-.1s-.1-.1-.2-.1l-.5-.6c-.3-.4-.6-.8-.7-1l-1.3-1.9c0-.1-.1-.2-.1-.4l.4-.6c0-.1-.1-.2-.2-.4s-.2-.3-.2-.3c-.2 0-.3 0-.4-.1-.1-.1-.1-.2-.2-.3s-.1-.2-.1-.3c0 0-.1-.1-.1-.2s0-.1-.1-.2h.1l-.1-.5-.1.3-.2-.9c-.1-.2-.2-.3-.3-.5-.1-.2-.2-.3-.2-.4l-.3-.6-.3.4v-.5c-.2.3-.4.5-.5.7v.2c-.2.4-.3.6-.4.7 0 .1-.1.2-.1.3 0 .1 0 .2-.1.3 0 0-.1 0-.1.1-.1 0-.1 0-.1.1h-.2v.2c0 .2.1.3 0 .5l-.3-.5-.1.7c.1-.2.2-.3.2-.3.1.1.2.1.2.2s-.1.1-.2.2-.1.2-.2.4-.1.3-.1.4v.2c0 .1 0 .2-.1.3-.1.3-.3.6-.4.8-.1 0-.2.1-.2.1-.2.5-.3.8-.4.9 0 0 0 .1.1.1v.1c-.1.3-.2.7-.4 1l-.1.1-.1.1c-.1.1-.1.2 0 .3l.1-.3.1.1c-.1.2-.3.4-.4.5h.1c-.2.3-.3.6-.4.8-.1.1-.2.4-.3.7-.3 1-.4 1.5-.4 1.6 0 .1-.1.3-.2.6s-.2.5-.2.7c-.1.5-.2 1-.2 1.5 0 .3.1.7.4 1.3 0 0 .1.1.2.1h.3l.4-.3c.1-.1.3-.2.4-.2.1 0 .2-.1.4-.1s.3 0 .4-.1c.1 0 .1-.1.2-.1 0-.1.1-.1.2-.2l.1.5.2-.2h.1l-.2.6c0 .1-.1.2-.1.3 0 .1-.1.2-.2.3-.2.4-.5.6-.7.8-.3.2-.6.3-.9.3-.8 0-1.7-.3-2.6-.8h-.1c-.1 0-.3 0-.4-.1-.1-.1-.2-.2-.2-.3-.1-.1-.1-.2-.1-.3 0-.1-.1-.2-.1-.3 0-.1 0-.3-.1-.4-.2-.6-.4-1.1-.4-1.4v-.7c0-.3 0-.4.1-.6 0 0 0-.1-.1-.2h.1c0-.4 0-.7.1-1.2.1-.4.2-.7.3-.9l.1.3h.1l.5-1.9-.1.1.4-1.5c.1.1.1.2.1.3l1-2.5s-.1-.1-.4-.2v.2h-.6l.3.1h-.4c-.2 0-.3.1-.3.4H11s-.1 0-.3-.1v.1c.1 0 .2.1.4.1l-1.1.4c-.1 0-.1 0-.2.1h-.5c-.1 0-.2 0-.3-.1l-1 .4h-.1c-.1 0-.1 0-.1.1-.1 0-.2.1-.3.2-.1.1-.3.2-.4.2-.1 0-.3.1-.5.1s-.3 0-.5.1c0 0 0 .1-.1.1v.1h-.9c-.1 0-.3-.1-.4-.1-.3-.2-.6-.4-1.1-.8l-.7-.8c-.2-.1-.4-.3-.7-.6s-.5-.4-.7-.6c-.1-.2-.4-.4-.7-.7s-.5-.6-.7-.8c-.1-.3-.2-.6-.2-1s.1-.8.3-1.3c0-.1.2-.3.5-.6.1-.1.3-.2.3-.2.1 0 .2-.1.3-.3.1-.1.2-.3.3-.4.1-.1.2-.1.4-.1l.1-.1H2v-.1l1-.3.3-.3.2-.1.2-.1c.1 0 .3-.1.4-.2l.6-.3h.1l.1.1c.3-.1.6-.3.9-.5l.4-.3c.1-.1.2-.1.3-.1.1 0 .2 0 .2-.1l.3.4h.3l-.2-.1.3-.3v.4c.1-.1.3-.1.6-.2l.6-.3c.1-.1.2-.1.3-.1.1 0 .2 0 .3.1-.2.1-.4.2-.5.3l-.8.3v.1h.4c.2-.1.3-.2.4-.3.1 0 .4-.1.8-.3v.1l-1 .4-.1.1s-.1.1 0 .2L8 28v-.1h-.5l.1.1c-.1 0-.2.1-.3.2-.1.1-.2.2-.3.2-.1 0-.2.1-.3.1-.1 0-.2 0-.2.1l-.5.5h-.4l-.2.1.1.3c.1-.1.2-.1.4-.2.1 0 .2-.1.3-.1v.1l-.7.3-.1.1-.1.1H5l.2-.2-.1-.1-.9.5v.1c.1 0 .2-.1.3-.1.1 0 .3-.1.4-.2-.1.2-.3.3-.4.4l-.9.6-.6.3c-.1.2-.3.4-.5.6-.2.2-.4.5-.5.7.1.2 0 .5 0 .7l.1-.2v.5c0 .4.1.8.3 1.1.2-.1.3-.3.3-.5v-.5h.1c.1 0 .2.1.3.1.1.1.2.1.2.1.1 0 .2-.1.4-.1.1 0 .2-.1.3-.1-.1.1 0 .1 0 .1.2 0 .4-.1.8-.1.3-.1.6-.1.8-.1.5 0 1.1-.1 1.7-.4.5-.1.8-.2 1.1-.3.1 0 .4-.1.8-.3.1 0 .2-.1.3-.1.1-.1.2-.1.3-.2.1 0 .3-.1.4-.1.2 0 .3-.1.4-.1 0 0 .1 0 .1-.1l.1-.1 1-.3 1-.3.6-.3 1.2-.4.1-.1c0-.1 0-.1.1-.2v.1l2.7-5.1h.1l.4-.7c.1-.2.2-.3.3-.5.1-.2.2-.3.2-.4l.8-1s0-.1.1-.1c0-.1 0-.1.1-.1 0 0 .2-.3.5-.7v-.1l.1-.1.4-.8.4-.5.3-.4c.2-.4.3-.6.4-.7l.4-.4c.3-.4.5-.7.5-.7l.9-1.4c.1-.1.2-.2.3-.4l.3-.3c.2-.2.3-.3.4-.5v-.4c.2-.3.5-.5.8-.8 0-.1.1-.2.2-.3.1-.1.2-.3.2-.3.2-.2.3-.5.5-.6.2-.2.3-.4.4-.5.2-.2.4-.4.4-.5 0-.1.1-.2.2-.3.1-.1.2-.3.3-.4l.6-.8c.1-.1.2-.2.3-.4l.2.2c0-.1 0-.2.1-.3 0-.1.1-.2.1-.3.3-.4.7-.9 1.2-1.6.4-.5.7-1 1.1-1.4l.7-.9L33 4.1s.1-.1.2-.1.2-.1.2-.1c.1-.1.1-.2.1-.3l-.1-.1-.1-.2-.1.1.2.1-.6.1-.4.1v.1c.1 0 .3 0 .6-.1v.1c-1 .2-1.6.3-1.9.4l-1.6.5c-.1 0-.3.1-.5.2 0 0-.1 0-.1.1h.1c.5-.1.9-.2 1.2-.3L26.7 6l.3-.3-.4.1c-.1 0-.1.1-.2.1-.2.1-.3.1-.3.1-.1 0-.2 0-.3-.1h-.1s-.1 0-.1.1h.3l-3.4 1.6v-.3l-1.2 1.1v-.2c-.5.1-.7.2-.8.3-.1 0-.1.1-.1.3l.3-.2c.1 0 .2 0 .2.1s0 .2-.1.2c-.1.2-.4.4-.6.6h-.5l-.2.6-.2-.4c.2-.1.3-.2.4-.3l.3-.2-.1-.2-.1-.2v.3h-.5c0 .1-.1.1-.1.2s-.2.1-.2.2l-.1-.1-.1-.1-.2.5-.5.2-.6.2v-.4l-.5.5v.4l-.2-.3v.2c0 .1-.1.2-.2.4s-.2.3-.3.4c-.1 0-.2.1-.4.2s-.3.2-.4.3h.2l-.7.5v-.2l-.1.1-.1-.2-.3.9h-.1v-.2l-1 .7-.4.4v-.3h-.1c0 .1.1.2.1.3v.3c0 .1 0 .2-.1.4v.1c-.1 0-.1 0-.2-.1l-.3.5-.4.8h-.1l-.1 1c.6-1 1.3-1.8 2.3-2.6 0-.2.2-.4.5-.6.3-.2.5-.3.7-.2l.8-.8c.4-.4.7-.7 1.1-1 .3-.3.7-.5 1-.7l.1.1-.4.5-.9.2-.9 1-.1-.1-.8.9c-.3.2-.5.4-.5.5-.2.3-.4.5-.5.7l-.5.7-.4.4-.5.7c0 .1-.1.3-.1.4 0 .2-.1.3-.1.4 0 0-.1.1-.1.2-.1.1-.1.2-.1.2L13 19s.1 0 .2.1h.2c1-.2 1.8-.4 2.4-.5.4-.1.9-.4 1.4-.7l1.1-.6c.1-.1.3-.2.4-.3.2-.1.4-.2.6-.4 0 0 .1-.1.2-.1.1-.1.2-.1.3-.1.1 0 .2.1.3.2h.4v.3l-.3-.1h-.1l.3.3h.2l-.4.3.1.2-.9 1-.1.1.3.1c-.2.1-.5.3-.8.5-.3.2-.6.4-.8.6-.1.2-.4.3-.7.4-.3.1-.5.2-.6.3 0 0-.2.1-.4.1l-.4.1s-.1.1-.2.1-.1.1-.2.1h-.9v.2l-1.3-.2h-.1c-.1-.1-.3-.3-.6-.5s-.5-.5-.6-.8c-.1-.3-.3-.6-.6-.9-.3-.3-.5-.6-.6-.8-.6-1-1-1.9-1-2.8 0-.4.1-.8.2-1.2.1-.2.2-.5.4-.7.2-.3.3-.5.4-.6.2-.3.3-.5.5-.6 0 0 .1-.1.2-.1s.1 0 .2-.1.2-.1.2-.1c0-.2.1-.4.2-.5.1-.1.2-.3.4-.4.2-.1.3-.3.4-.4.2-.2.6-.5 1.2-1l.7-.5c.7-.5 1.2-.9 1.5-1.1.4-.2.7-.4 1-.6.3-.2.6-.3.8-.5l1.1-.6c0 .1.1.2.2.3.1-.1.3-.3.6-.5.2-.2.5-.4.7-.6.2-.1.4-.2.7-.3 0 0 .1-.1.2-.1.1-.1.2-.1.2-.1h.1c.2-.1.5-.3 1-.5 1.2-.6 2.1-1 2.7-1.3.3-.1.7-.3 1-.4.5-.2.9-.4 1.2-.5.3-.1.7-.2 1-.2h.4c.1-.1.1-.2.1-.2.2-.1.4-.2.7-.3.3-.1.6-.2 1-.4h.1c.1 0 .1 0 .2.1.1 0 .2.1.3.1l.3-.3c.1-.1.3-.1.5-.1s.4-.1.5-.1c0 0 .1 0 .2.1h.1c.3-.2.7-.3 1.2-.3.2 0 .5 0 .9.1.3 0 .6.1 1 .3.4.2.6.3.8.3.3-.3.5-.3.7-.2.5.1.8.2 1.1.4.2.1.4.2.7.4l.6.3h1c.4 0 .8.1 1.1.1.2 0 .4.1.8.1s.8.1 1.1.2c.3.1.6.3.8.5l.6.9.4.6c0 .2.1.4.2.5.1.1.2.3.3.5.1.2.2.4.2.7 0 .1 0 .2-.1.3-.1.1-.2.2-.2.3h.3c-.1.6-.2 1.1-.4 1.6s-.5 1.2-.9 2.1c-.1.3-.3.6-.6.9s-.4.5-.5.6l-.5.6-1 1.3c-.3.4-.6.8-1 1.1l-.6.7c-.1.1-.2.3-.4.5-.1.2-.3.4-.4.6-.1.1-.3.3-.5.4-.2.1-.3.3-.5.4-.1.1-.2.2-.3.4-.1.2-.2.3-.3.4l-.2.3-.2-.1v.3c-.5.6-.8.9-.8.9l-.9.8-.3.3-.3.2-.1-.2v.2h-.3c0 .1-.1.2-.1.3s-.1.3-.2.3c-.5.5-1 .9-1.6 1.3-.6.5-1.3 1-2 1.5L30 25.7c-.5.3-1 .6-1.4.9l-2.5 1.7-.8.4c-.4.2-.6.3-.7.4l-1.9 1.2-.2.1.1.2s.1 0 .3-.1l.1.2.1-.1c.1.4.3.8.5 1.3h-.2s-.1 0-.1.1l.4.5h-.1l-.1.1c.3.2.6.3.7.5h.1s.1.1.1.2v.3c0 .3.1.6.4.9.1.1.2.2.2.3.1.1.1.2.2.3l.2.2c.1.1.2.1.2.2s0 .2-.1.4l.2-.1c.1.1.2.4.4.6 0 0-.1 0-.3-.1l.3.3v.4c.2-.1.3-.1.3-.1v-.2c.1 0 .2.1.4.2s.3.2.4.3c.1.2.2.4.4.6.2.2.3.4.4.4.1.2.3.4.6.6.3.2.4.4.5.5l.2.4s.1.1.1.2.1.1.2.2c0 .1.1.2.2.3.2.1.3.2.4.2 0 0 .1.1.1.2s.1.1.1.2l.6.5c.2.1.3.3.5.6h.2c.1.2.2.4.4.5.1.1.3.3.5.4.2.1.4.3.6.4.4.4.9.8 1.4 1.1.1.1.7.5 1.8 1.1.3.2.5.3.6.4.6.4 1.1.7 1.5.9.3.2.6.3.8.4l.6.3.8.3c.1 0 .2.2.3.3.1 0 .2-.1.3-.1l.3.2c.6.2 1 .4 1.1.4.1 0 .3.1.5.1s.4 0 .6.1c.2 0 .5.1.7.2.2.1.4.1.7.2.6.1 1.1.1 1.5.1.4 0 .9-.1 1.4-.3l.7-.1h.4c.2 0 .4 0 .4-.1.2-.3.3-.7.3-1.3 0-.4-.1-.8-.3-1.3-.2-.4-.3-.7-.3-.9-.2-.5-.4-1.2-.7-2.1h-.1l.1-1-.3-.3v-.1l.2.1-.1-.3.3-.1.2.4.1-.2 1 1.4v.2c.1.2.3.3.5.5l.5.5c.2.2.3.5.4.7.1.2.3.4.4.6l.2.2c.1 0 .1.1.1.2zM13 42.9c-.2.1-.3.2-.3.3 0 .1 0 .3.1.4l.2-.7zm5-12.6l-.1-.1-.3.7h.1l.3-.6zm10.1-14.6l.1.1c.3-.5.9-1.1 1.6-2l.8-.9-.1-.1.9-1.2.5-.7s0 .1.1.1l-.4.6s-.2.2-.5.6l.1.1.4-.7h.2L33 9.9l1.1-1.4s.1-.2.5-.6c0-.1.1-.2.1-.3 0-.1.1-.2.1-.2 0-.1.1-.1.2-.2s.2-.1.3-.2l2-2.5.4-.6c-.1 0-.3-.1-.3-.1-.2 0-.4.1-.7.2-.2.1-.4.3-.4.5h.2l-.4.5-.4.4s-.1.1-.1.2-.1.1-.1.1c-.3.1-.5.3-.6.6 0 0-.1.2-.1.5h-.5l.1-.3c-.2.1-.3.2-.3.3v.3c0 .2-.1.4-.3.5 0 0-.1.1-.1.2l.3.1-1.4 1.8.1-.3h-.1c0 .1-.1.2-.1.3l-.1-.1s-.2.2-.5.6h.1l.3-.2.1.1-4.3 5.6zm-1 1.2l.1.1.8-1.1-.1-.1c-.3.5-.6.9-.8 1.1zm-.7 1.6l.1.1.6-.8H27l-.6.7zm-4.5 6l.5-.6-.1-.1-.4.7zm-.5 3l1.2-2.4c.1-.2.2-.3.3-.5l.3-.6c.1-.2.4-.6.8-1.3l1.9-3 .6-.9-.1-.1-.9 1.1h-.1l.5-.9s-.1 0-.1-.1c-.3.5-.6.9-.9 1.4l-.5.8.6-.6.2-.2v.3c0 .2-.1.3-.3.4-.1.1-.3.2-.4.5l-.5.9-.2-.2.1-.5-1.1 1.6.1.1.5-.8.1.1-1.6 2.6-.1-.1.1-.3-.4.1c-.1.2-.3.5-.4.7s-.1.4-.2.6l-1 1.5.2-.5c.1-.2.2-.4.3-.8h.2v-.1h-.2l-.4.6-.4.4v.1c0 .1 0 .2.1.3h.2v.4c.3-.4.6-1.1 1.1-1.9l.1.1c0 .3-.2.7-.5 1-.2.3-.3.5-.4.8l.8-.4s.1 0 .2-.1c.1 0 .2-.1.2-.1zm.3-.3c4.3-2 8-4.6 11.2-7.9.4-.4.7-.6.8-.7l1-.7h-.1l.5-.5s0-.1.1-.2c0-.1.1-.1.1-.2l1-.9c.1-.1.1-.2.2-.3s.1-.2.2-.3c0 0 .1-.1.2-.1s.2 0 .3-.1v-.1h-.3c.1 0 .2-.1.3-.1.1 0 .2-.1.2-.1s.2-.3.5-.7l.9-1.1.2-.1.3-.1v-.1l.2-.2.1-.2c0-.1 0-.1.1-.2l.6-1 1.1-1.8c.1-.2.2-.6.3-1v-.8c0-.8-.1-1.5-.3-2.1-.2-.5-.3-.9-.5-1.1-.1-.2-.4-.3-.8-.3-1-.1-1.6-.2-1.9-.2h-.1c-.1 0-.2.1-.4.2l-.3.3c-.1.1-.1.2-.2.3l-.3.3-.3.3s-.2.3-.5.7l-.7 1-1.3 1.7-.8.9c-.7 1-1.1 1.5-1.1 1.6-.1.1-.2.3-.3.5-.1.2-.2.3-.3.4l-.9.9c-.5.5-.8.9-1.1 1.3-.4.5-.8 1.1-1.2 1.8l-.6.9-1.6 2.5c-.3.4-.5.8-.6 1-.5.8-1.1 1.7-1.6 2.6-.3.4-.6 1-1 1.7-.1.1-.1.3-.2.4 0 .1-.1.3-.2.4l-.9 1.5zm1.1 2.6l.9-.5.9-.6c.3-.2.7-.4 1.2-.7.5-.3.8-.6 1.2-.8.3-.3.6-.5.9-.6l1.3-.9.9-.6c1-.7 1.8-1.3 2.3-1.6.8-.6 1.5-1.2 2.3-1.8.1-.1.6-.5 1.3-1.3l1.6-1.5.5-.4c0-.1.1-.3.3-.6.3-.3.4-.4.6-.3l.4-.7h.2s.4-.5 1-1.2l1.3-1.6.7-.9c.7-.8 1-1.2 1.1-1.4l1.2-1.8c.2-.5.5-1.3.7-2.1 0-.1.1-.2.1-.4s.1-.3.1-.5-.1-.4-.2-.6v.5s-.1 0-.1.1h-.1v.6l-.7 1.5s-.1.1-.1.2-.1.1-.1.2c-.1 0-.2.2-.3.3-.1.2-.1.3-.1.4-.6.7-.8 1.1-.8 1l-.3.6c-.1.2-.2.4-.3.5h-.1l.1-.1s0-.1.1-.2c-.1 0-.2.1-.3.2-.1.1-.2.1-.3.2 0 .1-.1.2-.2.3-.1.1-.1.2-.2.3-.2.2-.3.4-.4.4l-.2.1v.2c0 .1 0 .2-.1.2h-.2c-.5.6-.8 1.1-1 1.4h-.3V15l.3.1c-.2 0-.4.1-.4.1-.2.4-.4.6-.5.8l-.1-.2-.3.3h.1l-.5.6-.2-.4v.5h-.2v.2c0 .1 0 .1-.1.2l-.4.3-.3.1c-.1 0-.2.1-.2.1l-.8 1c0 .1-.1.1-.2.2s-.2.1-.3.2c0 0-.1.1-.1.2s-.1.2-.2.3c0 0-.1 0-.1.1 0 0-.1 0-.1.1l-1 1.4c-.1.2-.2.3-.3.4-.1.1-.1.3-.2.4l-.2-.2-.3.3v.3l-.1-.1-.5.3-.4.2s-.1.1-.1.2-.1.1-.1.2l-.4.4c-.1.1-.3.2-.4.4 0 0-.1.1-.1.2s-.1.2-.1.2l-1.3.8s-.1 0-.2.1c-.1 0-.1.1-.2.1l-.3.4c-.5.4-.9.7-1.3.8-.1 0-.2.1-.4.1-.2.1-.3.2-.5.4l-.3.3-1.3.7c-.2.1-.7.4-1.5.8H23l-.4.5h-.3c0 .1-.1.1-.1.2s-.1.1-.1.2c.1.1.2.3.3.5.1-.2.3-.3.4-.5zm8.3 15.1l-.7-.7-.1.1.8.6zm5.3 1.6l-.5-.4-.1.1.5.5.1-.2zm1.7 1.3c-.1-.2-.1-.3-.1-.4-.5-.2-.7-.3-.8-.4l.9.8zM15 38.5l.4-.9c0-.1.1-.4.3-.6h-.1l-.7 1.6c0-.1 0-.1.1-.1zm78-15.7c.4 0 .6-.1.9-.2.1 0 .2-.1.3-.1.1 0 .3-.1.4-.2.1-.1.2-.2.2-.4s.1-.3.2-.5.2-.3.3-.4c0 0 .1-.1.2-.1s.1-.1.1-.1c.1-.3.3-.5.5-.5.1 0 .1 0 .1-.1 0 0 .1-.1.1-.2.1-.1.1-.1.1-.2l-.1-.1c.1-.4.4-.7.8-1.1h.2v.2s.1-.1.3-.2c.1-.1.2-.2.4-.3.1-.1.2-.3.2-.5 0 0 0-.1.1-.1 0 0 .1-.1.2-.1v-.4c0-.1 0-.3-.2-.4l-.6-.6c-.3-.3-.5-.5-.8-.7-.1-.1-.2-.1-.3-.1s-.2 0-.3.1c-.5.4-1 .7-1.4 1.1-.3.3-.7.8-1.1 1.6-.6.9-1 2.1-1.2 3.4v.9c0 .2.2.3.4.3zm4.4-3.9c0-.1-.1-.1 0 0zm1.2-1.2l-.1-.1c-.1 0 0 .1.1.1zM90 23.3h.3c-.1-.1-.2-.1-.3 0zm24.9 1.9v.2c0 .1 0 .1-.1.1h-.2s-.1 0-.1.1c-.1 0-.1 0-.2.1 0 .1-.1.1 0 .2 0 .2 0 .3-.2.3-.1 0-.2.1-.3.3l-.2-.1v.1s0 .1-.1.2-.1.1-.1.2c0 0 0 .1-.1.1s-.2.1-.4.2-.2.2-.3.2c0 0-.1 0-.2.1-.1 0-.1.1 0 .2l-.1.1h-.1c-.1 0-.2 0-.3.1-.1.1-.2.1-.3.1 0 .1.1.1.1.1.1 0 .1 0 .1.1-.4.1-.7.3-.9.7v.1s.1 0 .1.1-.2.1-.3.1h-.1s-.1 0-.2.1-.1.1-.2.1c0 .1-.1.2-.2.3-.1.1-.2.1-.2.2v.1l.1.1c-.1 0-.2.1-.2.2l-.2.2c-.1 0-.2.1-.3.1-.1 0-.2.1-.4.1s-.3.1-.4.2v.1h-.1c-.1 0-.1 0-.1.1s0 .1-.1.2c-.1-.1-.1-.1-.2-.1s.1-.3.1-.2c0 .1-.1.3-.4.4l-.6.5c-.1.1-.3.2-.6.3-.2 0-.4.1-.5.2-.2.1-.4.2-.5.2-.2 0-.3.1-.4.2l-.2.2-.2.2-.2.2c-.1.1-.2.2-.2.3 0 .1-.1.2-.2.3l-.3.3c-.1.1-.2.3-.4.5s-.4.4-.6.5l-.2.6h-.2c-.1 0-.1.1-.1.3 0 .1 0 .2-.1.3l-.3.3-.1.1h-.1c-.1 0-.1 0-.2.1s-.1.2-.2.2-.2.2-.3.4c-.1.2-.2.3-.3.4-.1 0-.2.1-.4.3-.2.2-.4.2-.5.2 0 0-.2.1-.3.3-.2.2-.2.3-.2.3 0 .1-.1.2-.2.2s-.2.1-.4.3l-.2.2c-.1.1-.2.2-.4.2-.1 0-.2 0-.3.1 0 0-.1 0-.1.1h-.1c-.1-.1-.2-.1-.4-.1h-.4c-.1 0-.3 0-.4-.1-.1-.1-.2-.1-.3-.1h-.1c-.2-.1-.5-.2-.9-.4s-.8-.4-1.1-.6c-.5-.4-.9-1-1-1.7V37c0-.1 0-.1-.1-.2v-1.4l-.4.4s0-.1-.1-.1v.1c0 .3-.2.5-.5.6V36c0-.1 0-.2.1-.3v-.3c-.1.1-.3.2-.5.4s-.4.3-.5.4c.3.1.4.1.4-.1s.2-.2.4-.2c0 .3-.2.6-.3.7-.4.3-.7.7-1.1 1.1-.3.4-.6.6-.9.7l-.2.1c-.3.3-.6.4-.8.5-.3.1-.4.3-.4.6h-.5c-.2.2-.5.3-.8.3-.3 0-.7-.1-1.1-.4-.2-.1-.3-.2-.5-.3-.2-.1-.3-.2-.4-.3l-.1-.1h-.3s-.2 0-.3-.1h-.4c0-.1-.2-.2-.3-.3-.2-.1-.3-.3-.3-.4-.2-.6-.3-1.2-.3-1.9 0-.6.1-1.2.2-1.8h-.3c0 .1 0 .1.1.2-.1 0-.2.1-.3.2l-.2.2v.1c0 .1 0 .2-.1.2-.1.1-.1.2-.1.2s-.1.1-.2.3c-.1.2-.3.3-.5.3h-.1s-.1 0-.1.1c-.1 0-.2.1-.4.2-.1.1-.3.2-.4.2 0 0-.1 0-.2.1s-.2.1-.3 0h-.2c-.2.3-.4.4-.6.4h-.9c-.1 0-.1-.1-.2-.1s-.1-.1-.2-.1c-.4-.1-.7-.2-.8-.1-.1 0-.2 0-.2-.1l-.1.1s-.1 0-.2-.1-.1-.1-.2-.1c0 0 0-.1-.1-.1H76c-.3-.1-.6-.3-1-.5-.1 0-.2-.1-.3-.2-.2-.1-.3-.2-.4-.3-.2-.3-.3-.5-.3-.7 0-.1 0-.1-.1-.2-.1 0-.1-.1-.1-.3v-.3c-.1-.3-.1-.5-.1-.8 0-.2 0-.5.1-1 .1-.7.3-1.1.5-1.4 0 0 .1-.2.1-.5v-.1c0-.1.1 0 .1.1v-.1c0-.1-.1-.2-.2-.2 0 0 .1.1 0 .2v.2s-.1 0-.1-.1l-.2.2c-.1.1-.2.1-.3.1l-.1-.1v.1l-.1.1.1.1h-.2c.1.2.1.3 0 .2-.1 0-.1-.1-.2-.1v-.1H73v.2c0 .1 0 .1.2.1 0 .1 0 .1-.1.2H73s0 .1.1.1c0 0 0 .1-.1 0 0 .1.1.2.1.3 0 .1-.1.2-.2.3-.2.2-.5.5-.7.9-.1.1-.2.1-.4.1v.1c0 .1 0 .1.1.1l-.1.1c-.1 0-.1.1 0 .2v.1l-.1.1c-.1 0-.2.1-.3.3-.2.3-.3.4-.4.5v.2c-.1.1-.2.3-.4.5v.3c0 .2-.1.3-.2.4 0-.1 0-.2.1-.3-.1.1-.2.2-.3.4-.1.2-.2.3-.3.4.1 0 .1 0 .1.1v.1c0 .1-.1.2-.1.3 0 .1-.1.2-.2.3-.1 0-.1.1-.1.3 0 .1 0 .2-.1.3l-.1-.1h-.1s-.1.1-.1.2-.1.1 0 .2v.1c-.2.1-.2.3-.2.5s0 .4-.1.5c0 .1-.1.2-.2.4-.1.1-.1.3-.2.4.5-.2.5 0 .5.1-.2 0-.3.1-.4.1-.2 0-.3-.1-.4-.2 0 0-.1-.1-.3-.1-.2 0-.3-.1-.5-.3-.2-.2-.4-.3-.5-.3-.1 0-.3-.1-.4-.3-.1-.2-.3-.3-.4-.3-.4-.2-.8-.4-1.2-.8-.4-.3-.7-.5-.8-.6l-.1-.1c0-.1-.1-.3-.2-.4-.1-.2-.1-.3-.2-.4 0 0 0-.1-.1-.2s0-.2.1-.2c-.1 0-.2-.1-.2-.3 0-.2 0-.4.1-.7 0-.3.1-.5.1-.7.2-.7.3-1 .3-1.1 0-.1.1-.3.2-.4.1-.2.1-.3.2-.4h.2c0-.1-.1-.1 0-.2v-.2h.1s0 .1.1.1l.1-.2c-.1-.1 0-.3.1-.3 0 .1.1.1.1.2.1-.1.1-.1.1-.2s-.1-.2-.2-.3l.1-.2s0-.1.1-.3c0-.2.1-.3.3-.3v-.1s0-.1.1-.1v-.1h.1c.1 0 .2 0 .3-.1s.1-.2.1-.2.1-.1.1-.2c.1-.1.1-.2.1-.3h.1v.1l.1-.1s0-.1-.1-.1c.1 0 .1-.1.1-.2s.1-.2.1-.3c0-.1.1-.1.3-.1 0-.5.3-.8.8-1v-.2c0-.1 0-.1-.1-.2-.2.1-.4.3-.4.5 0 .1-.1.1-.1.2-.1.1-.1.1-.2.1-.2 0-.3.1-.3.3 0 .1-.1.1-.1.1h-.1v-.3c0-.1 0-.1-.1-.1-.1.3-.2.5-.2.8 0 0 0-.1.1-.1l.1-.1v.1c-.1.1-.2.3-.5.5 0 0-.1.1-.1.2s-.1.1-.2.2v-.1l.1-.1s0-.1-.1-.1c0 0 0 .1-.1.2-.3-.1-.3 0-.3.1-.4.1-.6.3-.6.6 0 .1-.1.2-.2.3-.1.1-.2.2-.2.3l-.1.1h-.2l-.1-.1v-.1s0-.1-.1-.1v.2c0 .2-.1.3-.2.5v-.1s0-.1-.1 0v.2c0 .1.1.1.1.2l-.1.1c0 .1-.1.1-.2 0 0 0 0-.1.1-.1v-.1c-.1 0-.2 0-.3.1-.1.1-.1.2 0 .3l-.1.1-.1.1c.1 0 .1-.1.2-.1v.1h-.1c-.2.1-.2.2-.2.4-.1 0-.3.1-.4.3l-.2.3-.2-.2s0 .1-.1.2-.1.1 0 .2c0 0-.1.1-.2 0-.1 0-.1-.1-.1-.1-.1.2-.1.3-.1.4 0 .1 0 .2-.1.3l-.1.1c0 .1 0 .1-.1.1-.1.1-.2.3-.4.5s-.3.4-.4.5c0 .1-.2.2-.4.5l-.4.4c-.1.1 0 .1.1.1 0 0-.1 0-.2.1-.1 0-.1.1-.1.1v.1c0 .1 0 .2-.1.4s-.1.3-.1.4c-.1 0-.1 0-.2.1 0 .1-.1.1-.1.1h.2s-.1.2-.2.3c-.1.2-.2.3-.3.4l-.2.2c-.1.1-.2.2-.3.2 0 0-.1 0-.1.1v.1c-.2.3-.4.6-.5.9 0 .2-.2.3-.3.5l.1.1v.1h-.1v-.1c-.1.1-.1.2-.2.3s-.1.2-.2.3v.2c-.1.2-.2.3-.3.4 0 .1-.1.2-.1.2l-.1.1v-.1c-.2-.1-.4-.2-.4-.4 0-.1-.1-.2-.1-.2-.4 0-.7-.1-.9-.3-.1-.1-.2-.1-.4-.2s-.3-.2-.4-.3c-.1-.1-.3-.2-.4-.3l-.4-.4-.4-.4c-.1-.1-.3-.2-.3-.3-.1-.1-.2-.3-.2-.7 0 0 0-.1.1-.1h.1c-.1-.2-.1-.4-.1-.6V37c0-.1.1-.3.2-.6 0-.1.1-.3.1-.4 0-.2.1-.3.1-.4 0 0 0-.1-.1-.1h-.1c.1 0 .1-.1.1-.2v-.2c0-.1 0-.2.1-.3 0-.2.1-.3.2-.4v-.3l.1.1v.1c0-.1.1-.2.1-.3v-.1c0-.1 0-.1.1-.2.1 0 .1-.1.2-.1v-.2c.1-.1.1-.2.2-.4l-.2.2c-.3.2-.4.3-.6.5l-.2.2-.2.2c-.2 0-.3.1-.3.1 0 .1-.1.2-.1.4 0 .1 0 .1-.1.1l-.2.1c-.2.3-.5.6-.7.7l-.3.3c-.1.2-.2.2-.4.3 0 .1-.1.3-.2.3-.1.1-.2.1-.4.2-.2 0-.3.1-.4.1-.2 0-.3.1-.4.1-.2 0-.5-.1-.8-.3-.1-.1-.2-.1-.3-.2-.1 0-.2-.1-.3-.1v-.1c-.1-.1-.1-.1-.2 0 0 0 0-.1-.1-.1 0-.1-.1-.1-.2-.1-.3 0-.5-.1-.7-.2-.2-.1-.3-.3-.5-.6h-.3c-.1 0-.2 0-.3-.1 0 0-.1-.1-.1-.2v-.2c-.1-.3-.2-.6-.2-.8 0-.1-.1-.2-.2-.3 0 .1-.2.2-.4.4-.3.2-.4.4-.4.6 0 .1 0 .2-.1.2-.3.1-.5.3-.8.6l-.5.5-.6.6-.7.6c-.4.4-.7.7-1 .9-.1.1-.2.2-.3.2-.3.1-.6.4-.8.7-.1.3-.4.4-.8.5-.2 0-.3.1-.3.2s-.1.2-.2.3l-.3.3s-.1.1-.3.1c-.1-.1-.3-.1-.4 0l-.6-.2h.1c-.2-.1-.5-.3-1-.5-.5-.3-.9-.5-1.2-.5l-.1-.1s-.1 0-.1-.1c-.4-.3-.8-.7-1.1-1.2-.3-.5-.4-1-.4-1.5 0-.4.1-.8.2-1.3.5-2 1.2-3.8 2-5.4.2-.3.5-.8.9-1.4l.5-.8c.3-.5.9-1.3 1.8-2.4.1-.1.3-.4.5-.8.3-.4.5-.7.8-.9.1-.1.3-.2.5-.4s.5-.4.7-.5c.1-.1.2-.1.3-.1.2-.1.5-.1.8-.1.4 0 .8.1 1.1.3.1 0 .2.1.3.3l.3.3c.5-.4 1.1-.5 1.9-.5.4 0 .8.2 1.3.5.6.4 1 .8 1.3 1.2.1.2.2.4.2.6 0 .1 0 .2-.1.4 0 .2-.1.3-.1.4 0 .1 0 .3.1.4.1-.2.3-.4.6-.8 0-.1.2-.2.3-.5.2-.3.4-.5.6-.7.6-.8 1.2-1.4 1.8-1.8.3.2.6.3 1.1.4.5.2 1 .6 1.6 1.3.1.2.1.3 0 .4-.1.1-.2.3-.3.6-.1.3-.3.5-.6.7-.7.4-1.4 1.1-2.3 2 0 .1 0 .1-.1.1-.3.2-.4.3-.5.4-.1.1-.2.3-.4.7l-.1.1c-.1 0-.1.1-.2.2.1.1.1.1.1.2v.2c0 .1 0 .1-.1.1l-1 1.8c-.1.1-.2.3-.3.6-.1.3-.2.5-.3.6l-.2.4c-.2.4-.3.8-.3 1.2v.5c0 .1 0 .2-.1.3-.1.1-.1.2 0 .3.2 0 .5-.1.6-.4 0 0 0-.1-.1-.1h-.1c.2 0 .4 0 .5-.1.1 0 .2-.1.4-.3.4-.4.8-.7 1.3-1 .1-.1.3-.2.4-.4.2-.1.3-.3.5-.4.2-.1.5-.4.9-.8s.8-.7 1.1-1.1c.9-1 1.5-1.8 1.8-2.3.5-.6 1.3-1.6 2.2-2.9.1-.3.3-.4.6-.4h.1c.1 0 .2 0 .3-.1l.1-.1c0-.1.1-.2.3-.3h.2l.1-.1c.1-.3.2-.4.3-.5.1-.1.2-.2.3-.4.1-.2.2-.3.3-.4.1 0 .1-.1.2-.2 0-.1.1-.1.1-.2l.1-.1.6-.6c.1-.1.1-.2.2-.3l.3-.3s0-.1.1-.1c0-.1 0-.1.1-.1.1-.1.3-.2.4-.4.2-.2.3-.3.4-.3.1 0 .1-.1.2-.2 0 0 .1-.1.2-.1s.2-.1.2-.1c0-.1.1-.2 0-.2 0 0 .1.1.2.1s.2.1.2.1h.2V20c.3 0 .5.1.6.2.1.1.3.1.5.2s.4.2.6.2c.6.3 1 .5 1.2.7l.6.6.2.2c.1.1.2.2.2.3h-.2s-.1.1-.1.2c-.1.1-.1.1-.1.2h-.1v-.1H66v.4c0 .2 0 .3-.1.4 0 0-.1-.1 0-.2v-.1l-.1.1h-.1c-.1-.1-.1-.1 0-.1s.1-.1 0-.2h-.1s-.1 0 0 .1h-.1c-.1 0-.1 0-.1.1 0 0 0 .1-.1.2s-.1.2 0 .3h-.2c0 .1.1.2.1.2 0 .1 0 .1-.1.2v.2H65l-.1-.1-.2.2v-.2c0-.1.1-.2 0-.3h-.3c0-.1-.1-.1-.2-.1v-.3c0 .1-.1.3-.1.4v-.1c0-.1 0-.1-.1-.1 0 0-.1.1-.2.3s-.1.2-.1.4c.1 0 .2-.1.1-.3h.2v.2l.1-.1h.1v.1c0 .1 0 .2-.1.3-.1.1-.1.1-.2.1 0 0-.1 0-.1.1h-.1v-.3c-.1.1-.1.2-.1.3 0 0 0 .1.1.1 0 0-.1.1-.1.2s-.1.2-.3.2v-.1s0-.1.1-.1c0 0-.1-.1-.1 0h-.1V25c0-.1 0-.2.1-.3.1-.1.1-.1.2-.1v-.2h-.3v.2s-.1.1-.2.1h-.1v.2c-.1 0-.1.1-.2.2l-.2.3c-.1 0-.1.1-.1.2v.2c.2-.1.2-.2.2-.3.1 0 .1 0 .2-.1l.1-.1c0-.1 0-.1.1-.1.1.1.1.2.1.2-.1 0-.1.1-.1.1-.2.1-.3.2-.3.3 0 .1 0 .2.1.3-.1 0-.2.1-.2.2 0 .2-.1.2-.3.2 0 0 .1-.1.1-.2.1-.1.1-.1.1-.2l-.1.1c-.1-.1-.1-.2.1-.3h-.1c-.2 0-.3.2-.4.5h.1s.1 0 .1-.1v.1c0 .1 0 .1.1.2v-.2.2l-.1.1c.1.1.1.1.1 0s.1-.1.1-.1h.1l.1.1c-.1.1-.2.2-.3.4-.1.1-.2.2-.3.4 0 0-.1.1-.1.3 0 .1-.1.1-.1 0-.1 0-.1-.1-.2 0-.1 0-.1.1-.1.1h-.1s-.1 0-.2-.1c-.1 0-.1 0-.2-.1 0 .1-.1.1-.1.2 0 0 0 .1.1.1l.1-.1c0-.1.1-.1.2-.1 0 .1 0 .2.1.3 0 .1-.1.1-.2.2-.1 0-.1.1-.2.1v-.1s0-.1.1-.2l.1-.1h-.3v.3c0 .1 0 .2.1.2v.1l-.1.1-.1-.1v.2c0 .1 0 .2-.1.3-.2.2-.4.4-.5.8l-.1-.1s.1 0 .1-.1l-.2-.1c0 .4-.2.7-.5 1.1l-.3-.1c0-.1 0-.2-.1-.5 0 0-.1.1-.1.2v.1c0 .1-.1.2-.2.3l.2-.6v.4s.1-.1.2-.1c.1-.1.2-.1.2-.1.1 0 .1 0 .2.1-.1 0-.3.1-.3.2l-.1.1c-.1.1-.1.1 0 .2v.1c0 .1 0 .2-.1.4s-.2.3-.2.5h-.2l.1.1h-.3v.3h-.1l-.1.1s0 .1-.1.1c0-.1.1-.1.1-.1s0-.1-.1-.1c0 0-.1 0-.1-.1.1 0 .1-.1.2-.3 0-.1.1-.2.1-.3h-.2s-.1-.1-.2-.1-.1-.1-.1-.3h-.1l-.5 1.1h.1l.1-.1c0-.1.1-.1.2-.1v.4c0 .2-.1.2-.3.2v.2c-.1.1-.2.2-.3.4-.1.2-.2.3-.4.3v-.2c0-.1 0-.1-.1-.2 0 0 0 .1-.1.2 0 .1 0 .2-.1.2 0 0-.1.1-.2.1 0 0 0 .1.1.2 0 .1.1.1.1.2v-.2s0-.1.1-.1.1-.1.1-.2c.1.1.1.2.2.2 0 .1 0 .1-.1.2s-.2.2-.3.4c0 .2-.1.3-.1.4 0 0 0 .1-.1.2 0 .1-.1.2-.3.3-.2.1-.4.3-.5.7-.1.3-.2.6-.3.7 0 0-.1.1-.1.2s0 .2-.1.2v.1h.2c0-.1.1-.3.3-.4.1-.1.2-.3.3-.3l.4-.6c.2-.2.4-.5.7-.9.3-.5.6-.9.9-1.2 0 0 .3-.3.6-.7l.9-.9c.1-.1.1-.1.1-.2v-.1s.1 0 .1.1h.1c.1 0 0 0 0-.1s0-.2.1-.3l.3-.3.3-.3c.1-.2.2-.3.3-.4.1 0 .2-.2.4-.4.2-.3.4-.4.4-.5l.2-.2.2-.2.2-.2c.1-.1.1-.2.2-.3l.1-.1s.1-.1.2-.1h.1v-.1s.1-.2.3-.3c.2-.2.3-.2.3-.2.1 0 .1 0 .1-.1v-.1l.1-.1h.1s.1 0 .1.1v.3s0 .1-.1.1c0 0 0 .1-.1 0l.2.1v-.6c0-.2.1-.4.4-.6.2-.2.4-.3.6-.5.3-.2.5-.4.6-.6 0 0 .1-.1.2-.1s.2-.1.2-.1.1-.1.2-.1.2-.1.2-.2h-.1l.1-.1c.1-.1.3-.2.5-.4s.4-.3.5-.4l.4-.4c.2-.2.3-.3.5-.4.3-.2.4-.4.5-.5h.1c0 .1.1.1.1.1 0-.1.1-.1.1-.1s.1 0 .1-.1v-.1c.1-.1.2-.2.4-.3.1 0 .2-.1.3-.1.1-.1.2-.1.3-.2.1-.1.2-.3.3-.3.1-.1.2-.1.3-.1l-.1-.1c.1-.1.2-.2.3-.2h.1c0-.1.2-.2.3-.3.2 0 .3-.1.3-.1s.1-.1.2-.1.2 0 .3.1c.1.1.2.2.2.3h.1c.1 0 .2.1.4.2.1.1.2.2.2.3l.1-.1s.1 0 .1.1c.1.2.2.3.3.3l.1.1h.1v-.1l.1-.1c0 .2.1.4.3.5.1 0 .2.1.3.2l.3.3c.1.1.1.1.1.2s0 .2-.1.2c0 .1.1.1.2.1s.1-.1.2-.1v.3s.1.1.2.1.1.1 0 .3c-.1.1-.1.2-.2.3.4.2.3.3.3.3-.1 0-.3.2-.4.5l-.1.1h-.1v-.1c0-.1 0-.1-.1-.1s-.1.1-.2.1c0 .1-.1.1-.1.1v.1h.1c-.1.2-.2.3-.3.3v-.4h-.1c-.1 0-.1.1 0 .1v.3h.2v.1c-.1 0-.1.1-.2.2s-.1.1-.2.1v-.1l-.1-.1c-.1 0-.1 0-.1.1s0 .1-.1.1-.1 0-.2-.1h.1s0-.1-.1-.1c0 0 0-.1-.1-.1v.1l-.1.1s.1.1.2.1h.3v.2l-.1-.1s0-.1-.1-.1c0 0 0 .1-.1.1 0 0-.1.1 0 .1v.1s0 .1-.1.1-.1.1-.1.1c-.1 0-.1.1-.2.3s-.1.2-.1.3c-.3.6-.5.9-.6 1 0 0-.1.1-.3.1h.2c0 .1-.1.2-.2.3-.1.1-.1.3-.1.4-.1 0-.1 0-.1-.1-.1.1-.2.3-.3.6-.1.3-.3.5-.5.7-.1.1-.2.2-.2.4-.1.2-.1.3-.1.3-.1.1-.1.3-.2.4-.1.1-.2.2-.2.3l-.1.1v.1h-.3v.1s0 .1-.1.1-.1.1-.1.1h.1s0-.1.1-.1v.1l-.1.1c.1 0 .1.1.1.1s0 .1-.1.1v.1c0 .2-.2.4-.3.6-.2.2-.3.4-.4.6 0 0-.1.1-.1.2-.1.1-.1.2-.3.2-.1 0-.2.1-.2.3 0 .1-.1.2-.1.3-.1 0-.1-.1-.1-.2h-.1c-.1.1-.1.2-.1.3 0 0 .1.1.1.2 0 0 0 .1-.1.3 0 .1-.1.2-.1.3 0 .1 0 .2-.1.3l.6-.8c.1-.3.3-.5.5-.7 0 0 .2-.3.5-.7l.7-.9c.1-.2.3-.3.4-.5.2-.2.3-.4.4-.5.3-.4.8-1 1.4-1.8.3-.3.6-.6.9-1l.9-1 1.4-1.5c.1-.1.3-.4.6-.6l.7-.7c.1-.1.3-.2.4-.4.2-.2.3-.3.5-.4.1-.2.3-.4.6-.6.3-.2.5-.3.6-.4l.3-.3c.1-.1.2-.2.3-.2h.2c.1 0 .2 0 .3-.1v-.1l-.1-.1.1-.1s0-.1.1-.1c0 0 .1 0 .1.1v.1s.1-.1.1-.2c0 0 0-.1.1-.1s.1 0 .1-.1.2-.3.5-.5l.4-.4c.2-.1.3-.2.4-.3l.2-.1s.1.1.3.2l.1.1c.1 0 .1.1.1.1s.1 0 .1-.1.1-.1.1-.1c0 .1 0 .1.1.2s.2.1.2.2v-.1h.1l.3.3c.1.1.2.1.3.2l.3.3c0 .1.1.1.2.2l.2.2c0 .1.1.1.1.2s.1.2.1.3c0 .2 0 .4-.2.6-.2.2-.3.4-.5.4l-.1.1s0 .1-.1.1c0 0-.1.1-.6.5-.2.2-.4.4-.6.5-.2.1-.3.2-.3.4 0 0 0 .1-.1.1h-.1c-.1 0-.2.1-.3.2-.1.1-.1.2-.1.3l-.1.1v.1c-.1 0-.1.1-.2.3l-.3.3v.3l-.1.1-.5.5v-.1s0-.1-.1-.1h-.1c-.4.7-.7 1.2-.9 1.5-.1.1-.1.3-.2.5s-.2.4-.2.5v.1s0 .1.1.1c0 .1 0 .2-.1.3 0 .2-.1.2-.1.3h-.2c.1-.2.2-.4.2-.5-.1.1-.2.3-.2.5-.1 0-.2.1-.2.3-.1.2-.3.6-.5 1.1 0 0 0 .1-.1.1v.3c0 .1-.1.1-.2.1h-.1v1.2s0 .1.1.1h.1c-.1.1-.2.1-.2.2v.7h.1c.2 0 .4-.1.6-.2.2-.1.7-.5 1.4-1 .3-.2.5-.4.8-.7l.8-.6c.1-.1.3-.3.8-.7.4-.3 1.1-1.1 2.4-2.3.8-.9 1.2-1.3 1.2-1.3.1-.1.2-.3.4-.6 0-.1.1-.2.2-.3.1-.1.2-.3.3-.4l.4-.8c.5-.8.9-1.4 1.3-2l.1-.1c0 .1.1.1.1 0 0 0 0 .1.1.2s.1.1.1.2v.1h.1c.6-.7 1-1.3 1.4-1.7h.2c.1.1.3.2.5.4.2.1.4.2.5.3.4.3.6.5.7.6.1.2.3.4.6.5.1 0 .2.1.3.1v.3c0 .7-.3 1.2-.9 1.5 0 0-.1.1-.1.2-.1.2-.1.4-.2.5-.1.1-.2.2-.4.3l-.2.2c-.1.1-.1.2-.2.2-.2.2-.4.4-.6.7-.2.3-.3.5-.4.6-.1.1-.1.2-.1.3h-.1s-.1 0-.1.1l-.1.1c-.1 0-.2.1-.2.1 0 .1-.1.1-.1.2 0 .2-.1.5-.3.8-.2.3-.3.6-.3.8-.2.4-.4.6-.7.8-.2 0-.3.2-.3.5 0 .2-.1.4-.2.6-.1.2-.2.3-.3.4-.1.2-.2.3-.3.5-.1.4-.3 1.1-.7 2.1v.3c.4-.1.8-.3 1-.5.8-.5 1.9-1.5 3.4-2.8l.6-.5 1.6-1.6 1-1c.2-.2.4-.4.5-.6.1-.2.1-.3.2-.5.1-.3.2-.5.3-.6 0 0 .2-.3.4-.7.2-.4.4-.7.5-.8.1-.2.3-.4.4-.7s.3-.5.4-.7l.1-.1.1-.1s.1 0 .1-.1V26c0-.1 0-.1.1-.2.1 0 .1-.1.1-.1l.3-.3c.1-.1.2-.3.3-.4v.3c.1 0 .2-.1.1-.2 0 0-.1-.1-.1-.2s0-.2.1-.3c.3-.4.6-.7.9-.9.1 0 .1-.1.2-.2 0-.1.1-.1.1-.2.8.2 1.6.6 2.4 1.2 0-.1.1-.2.2-.3l.2-.2c0-.2.1-.3.3-.5l.3-.3c.1-.3.3-.5.5-.7l.1-.1s.1-.1.2 0h.1c0-.2.2-.3.4-.4.1 0 .1-.1.1-.3 0-.2.1-.3.1-.3s.1 0 .3.1c.1 0 .3.1.5.2l.6.3c.1.1.3.2.6.3.2.1.4.3.6.4h.1c.1.2.3.5.7.7l1.2.8c.5.3.8.7 1.1 1.3v.2c0 .1 0 .2-.1.4s-.1.3-.1.4c-.2.1-.3.3-.4.6-.1.3-.2.5-.3.6l-.2.2-.2.2c0 .1-.1.2-.3.2 0 0 .1.1.1.2s0 .2-.1.3c.3-.1.6-.3.9-.6 0 0-.1 0-.1-.1s0-.1.1-.1c0 0 .1 0 .1.1v.1l.4-.3c.5-.4.8-.7 1.1-.8.2-.1.5-.4.9-.7l.6-.5c.2-.2.6-.4 1-.8l.6-.5.3-.2h.1s.1 0 .1.1h.2s.1 0 .1.1v.1s.1 0 .2.1c.1 0 .1.1.1.2 0 0 .1 0 .2-.1.1 0 .1 0 .1.1v.1c0 .1 0 .1.1.2h.2s0 .1-.1.1c.1-.3.1-.2.2-.2zm-37-.2l.3-.3h-.3v.3zm-3.7.3c0 .1 0 .1 0 0l.2.1c.1 0 .2-.1.2-.3 0 0-.1 0-.2.1-.1 0-.1.1-.2.1zm-3 4.3c0-.1 0-.2.1-.2h.1s-.1 0 0-.1v-.1s0 .1-.1.1c-.2.1-.2.2-.1.3zm-.9-6.7v.1s.1.1.2.1V23s0-.1.1-.1v-.2c0 .1-.1.1-.1.1l-.2.1zM61.4 27c0-.1.1-.1.1-.2v-.2h.2v.4h.2c.1 0 .1 0 .1-.1v-.1h-.1c-.1 0-.1.1-.1 0v-.1c.1 0 .1 0 .1-.1s0-.1.1-.2h-.2l-.1.1v-.2c.2-.1.2-.3.1-.5-.1 0-.1.1-.2.2s-.1.2-.2.2v.1c0 .1 0 .2-.1.3 0 .2.1.3.1.4zm-.7 1.1c0 .1.1.2.1.2.1-.2.1-.3.1-.4-.2.1-.2.1-.2.2zm-.9 1v.4c.1-.1.2-.2.2-.3 0 0-.1 0-.2-.1 0-.1 0-.1-.1-.1 0 .1 0 .1.1.1zm-15 .6c-.3.1-.5.4-.6.9.1-.2.3-.4.6-.9zm.6-5.2c-.1 0-.2 0-.2.1-.1.3-.3.3-.5.2-.3-.1-.4-.3-.5-.5 0-.1-.1-.1-.1-.2h-.3s-.1 0-.1-.1-.1-.1-.1-.1c-.2 0-.4.1-.6.3-.2.1-.4.3-.5.3-.1.1-.2.2-.3.4-.1.2-.2.3-.3.5.1-.1.3-.2.4-.4l.4-.4c.3-.2.5-.3.6-.3v.1c-.1 0-.2.1-.3.3s0 .3-.1.4c-.6.5-1 1-1.3 1.4-.1.2-.3.4-.5.6-.3.4-.6.7-.7.9-.1.1-.2.3-.3.5-.1.2-.3.4-.4.6-.6.8-1 1.4-1.2 1.7-.2.2-.3.2-.4.2 0 0-.1-.1-.3-.2 0-.1 0-.2.1-.3.1-.1.1-.2.1-.2-.3 0-.5.2-.4.4 0 .1 0 .3-.1.5-.1.1-.2.2-.2.3 0 .1-.1.2-.1.2h.1c.1 0 .1 0 .2.1-.1.3-.2.5-.3.6-.1.1-.3.2-.5.2 0 .2 0 .3-.1.4s-.1.2-.1.3c0 0 .1.1.2.1s.2 0 .2.1c-.4.6-.7 1.5-.9 2.6.1 0 .2-.1.2-.3 0-.1.1-.2.2-.3 0 .1 0 .3-.1.5 0 .2 0 .4-.1.6 0 .2-.1.3-.2.4v-.7c0 .1-.1.3-.2.5s-.1.4-.1.5c.1 0 .2-.1.4-.1.1 0 .3-.1.3-.2.5-.3 1-.7 1.6-1.4l2.7-2.7c.2-.2.4-.4.6-.7.2-.3.4-.5.5-.6l.5-.7-.4-.3c-.1-.1-.2-.2-.2-.3 0-.1.1-.2.2-.3.1-.1.3-.3.4-.5 1.3-1.7 2.2-3 2.7-4 0-.1.1-.3.3-.5.1.1.1-.2.1-.5zm.8 10.1c0-.1 0-.1 0 0-.1-.1-.1-.1-.1 0h.1c0 .1 0 .1 0 0zm.7-10.9c0-.1-.1-.1-.3-.1-.1 0-.1 0-.1.1l.1.1c.1 0 .1.1.2.1l.1-.2zm3 10.9c-.1.1-.1.1-.1.2 0 0 .1 0 .1-.2 0 .1 0 .1 0 0zm3.1-.3c-.1.1-.2.3-.1.4v.2-.1c.2-.2.2-.4.1-.5zm4.5-1.8c-.2.1-.3.3-.3.5h.2c.1 0 .2 0 .2-.1v-.1c.1-.1 0-.2-.1-.3zm1.3-1.2s-.1-.1-.2-.1c0 0-.1 0-.1.1v.2h.2c.1 0 .1-.1.1-.2zm.2-.5c0-.1 0-.1-.1-.2 0-.1-.1-.1-.1-.2-.1.1-.1.1-.1.2s.1.2.3.2zm-4.4.8h-.2l-.1.1v.1s0 .1.1.1c0 0 .1-.1.1-.2 0 0 0-.1.1-.1zm4.4 3.2v-.2c-.1 0-.2 0-.3.1.1 0 .1.1.1.2v.2c.1-.1.2-.2.2-.3zm.1-.6c0-.1 0-.2-.1-.3v.3c0-.1.1 0 .1 0zm.4-.2c-.1-.1-.1-.2-.1-.3v-.2c0-.1 0-.2-.1-.2s-.1.1-.1.2v.2h-.1c.1 0 .1 0 .2.1l.2.2zm.4-.1c0-.1 0-.1-.1-.2 0 .1-.1.2-.1.3l.1.1c.1-.1.1-.1.1-.2zm.3 1l-.2.3.1.1c.2-.2.2-.3.1-.4zm.9-1.1c.1-.1.1-.2 0-.2v.2c-.1 0-.1 0 0 0v.2c0 .1-.1.1-.1.1s0 .1.1.1h.1v-.1c0-.2 0-.2-.1-.3zm.7-2.9s0-.1.1-.2.1-.2 0-.3c-.1 0-.2.1-.2.3v.3c0 .1.1.1.3.1-.1-.1-.2-.1-.2-.2zm1.7-1.8s0-.1-.1-.1-.2 0-.2.1l.3.1v-.1zm.6 1.1c-.1 0-.1 0-.2.1 0 .1-.1.1-.1.1h.1s.1 0 .1.1c.2-.1.2-.2.1-.3zm.7-2.4v-.1s0 .1-.1.1-.1.1 0 .1h-.2c.1.1.2.1.3 0v-.1zm5.2 2.6c-.1 0-.1 0 0 0-.1 0-.1.1-.2.1s-.1.1-.2.1v.2c-.1 0-.2.1-.1.3h.1c.1-.1.2-.4.4-.7zm-.5-4.9c0-.1 0-.2.1-.4s.1-.3.1-.4c-.1 0-.2.1-.3.3 0 .1-.1.2-.1.3.1 0 .2.1.2.2zm.6 4.7c-.1 0-.2 0-.1.1l.1-.1zM69 23.9c0 .1.1.1.1.1s.1 0 .1-.1l.1-.1v.2s0 .1.1.1l.1.1c.1-.2.2-.2.4-.1h.1v-.2c0-.1 0-.1-.1-.1s-.2 0-.1-.1h.3l-.1-.1v-.1h-.5s0 .1-.1.2c-.2 0-.3.1-.3.3 0 0-.1 0-.1-.1.1-.1 0-.1 0 0zm-.2.5s0 .1.1.2 0 .2-.1.3l.1.1c0 .1.1.1.1.1V25c0-.1 0-.1.1-.1 0 0 0 .1.1.1 0 .1 0 .1.1.1 0 0 0-.1.1-.3 0-.1.1-.3.2-.3h-.1v-.2l-.1.1v.2c0 .1 0 .1-.1.1 0-.1 0-.2-.1-.3h.1s.1 0 .1-.1c-.1 0-.1 0-.1-.1-.1 0-.2 0-.2.1-.3-.1-.3 0-.3.1zm-.1 1.1h.1l-.1-.1c.1 0 .2-.1.3-.2-.1 0-.2.1-.3.1v.2zm-.3 7.2h-.1s-.1.1-.1.3v.3s0-.1.1-.2c0-.1.1-.1.2 0 0 0 .1-.1 0-.2v-.1l.7-1.2.1-.1h-.1s-.1 0-.1.1v.1s-.1 0-.1.1l-.4.7s-.1.1-.2.1v.1zm-.2-7.4c0-.1 0-.2.1-.2s.1-.1 0-.2c-.2 0-.2.2-.1.4zm-1.1.4c0 .1 0 .1 0 0 .3.1.4 0 .4-.2h-.3s-.1.1-.1.2zm-.3.8c0-.1 0-.2-.1-.4 0 0-.1.2-.2.3-.1.2-.1.4-.1.6.1-.1.2-.2.2-.3s.1-.2 0-.3l.2.1zm.4-.5c-.1 0-.2 0-.2.1s-.1.1-.2.1c0 .1.1.1.1.2h.2v-.2c.1-.1.1-.1.1-.2zm.7.2v.2c0 .1 0 .1-.1.2-.2.1-.2.2-.1.4 0 0 .1-.1.1-.2s.1-.1.2-.1c0 0 .1 0 .1-.1.1 0 .1-.1.1-.1v-.2h.1c-.1-.1-.1-.1-.1-.2s.1-.1.1-.1c-.1 0-.2 0-.3.1 0 0 0 .1-.1.1 0-.2.1-.3.2-.3.1-.1.1-.2.1-.3 0-.1-.1-.2-.2-.3v.4l-.3-.1.1-.3h-.3c.1 0 .1.1.1.2s0 .1.1.1c0 .2 0 .3-.1.4-.2-.1-.3-.1-.3.1v.4l.1.1c-.1-.3.1-.4.5-.4zm-.6 1.9l.2-.5h-.1c-.1 0-.1 0-.1.1s-.1.1 0 .2v.2zm6 3.4h-.2l-.1.1c.2.1.2.1.3-.1zm.7-2.4s0-.1 0 0c-.1-.1-.2-.1-.2-.2 0 0-.1.1-.2.3-.1.1-.2.2-.3.2.1.1.2.1.3 0 0 0 .1-.1.1-.2s.1-.1.3-.1zm.6-.9h-.3s-.1.1 0 .1c0 .1.1.1.1.1l.2-.2zm.4.3c0-.1-.1-.2-.2-.3 0 .1 0 .1.1.2 0 .1 0 .2.1.3v-.2zm.2-.8c-.1.1-.2.1-.2.2v.3c.2-.2.2-.3.2-.5zm1.1-1.3c0 .1-.1.1-.2.1H76c0 .1 0 .2-.1.2s-.1.1-.1.2v.1l.1.1h.1l.1-.1.2-.6zm.4-.2l-.3.2s.1.1.1.2 0 .1.1.2l.1-.6zm10.4.2s0 .1-.1.2c.1-.1.1-.2.2-.2h-.1c0-.1 0 0 0 0zM86 38h-.6v.1c0 .1-.1.2-.2.3.3 0 .5-.1.8-.4zm4.1-3.2c-.5.2-.8.5-.9.8.2 0 .3-.2.5-.4l.4-.4zm2.4-.1c-.2 0-.3 0-.3.1v.2c.1 0 .1-.1.2-.1.1-.1.1-.1.1-.2zm1.5-1.2l.3-.3c.1-.3.1-.5.2-.7-.1.1-.2.2-.3.2-.1.3-.1.6-.2.8zm2-5.3v-.1.1zm-.8.4v.2c0-.1 0-.1.1-.2.1 0 .1-.1.1-.1-.1 0-.2.1-.2.1zM94 34.1c0-.1 0-.1.1-.2-.1 0-.1.1-.2.1-.1.6-.2 1.1-.2 1.8.1 0 .2-.1.2-.2v-.4c0-.2 0-.5.1-1.1zm8.5-1.6c0-.1 0-.1 0 0l-.1-.1c-.1 0-.3-.1-.4-.2l-.4-.2c-.2-.1-.4-.2-.6-.4-.2-.2-.4-.3-.6-.4-.5-.3-.8-.7-.9-1.3-.1-.4-.2-.7-.2-.9-.1.2-.2.4-.4.7-.2.3-.4.6-.5 1-.3.7-.5 1.3-.9 1.7-.1.2-.3.4-.4.8-.1.4-.3.7-.4.8v.2c-.1.1-.1.2-.1.4v.4l-.1.3v.3c0 .1.1.2.1.3 0 .1 0 .2-.1.3-.1.3-.1.6-.1 1v.1c0 .1 0 .2-.1.3 0 .1.1.2.1.4.1.2.1.4.1.6 2-1.5 4-3.6 6-6.1zm5.7-3.9h.1-.1zm-3-4.2c.4 0 .5-.1.5-.4-.1 0-.2.1-.3.2s-.1.2-.2.2zm1.9-.2c-.1 0-.1 0-.1-.1s0-.1-.1-.1c-.1-.1-.1-.2-.2-.2s-.1 0-.3.1l-.1.1s-.1.1-.1 0h-.1c-.2 0-.3.1-.4.3-.2.4-.4.6-.7.7-.1 0-.1 0-.1.1v.1c0 .2-.1.4-.3.5-.2.2-.4.5-.6 1 0 .1-.1.2-.2.4s-.1.3-.2.5c0 .1-.1.2-.2.4s-.2.3-.2.5c0 .1-.1.3-.2.6s-.2.5-.2.6c0 .1 0 .3-.1.5 0 .2-.1.4-.1.6 0 .2 0 .5.1.8 0 0 .1-.1.2-.1s.2-.1.2-.2c.5-.7 1-1.5 1.4-2.3 0-.1.2-.3.4-.7.4-.6.6-1 .6-1.2l.3-.6.3-.6c.1-.2.2-.5.3-.8.5-.4.6-.7.7-.9zm2.3 4.4s-.1-.1-.2-.1-.2-.1-.3-.1c-.1 0-.2 0-.3.1 0 .2-.2.4-.4.6 0 0-.1.1-.2.1s-.2.1-.3.1c-.1.1-.1.1-.1.3.2.1.5 0 1-.3.4-.2.6-.5.8-.7zm3.5-2.7h-.1.1zm1.5-.5c0-.1 0-.2-.1-.2h-.2c.1.2.2.2.3.2z"/></svg>